<svg xmlns="http://www.w3.org/2000/svg" xmlns:xlink="http://www.w3.org/1999/xlink" width="500" zoomAndPan="magnify" viewBox="0 0 375 337.499995" height="450" preserveAspectRatio="xMidYMid meet" version="1.0"><defs><clipPath id="id1"><path d="M 2.078125 0 L 372 0 L 372 337 L 2.078125 337 Z M 2.078125 0 " clip-rule="nonzero"/></clipPath></defs><g clip-path="url(#id1)"><path fill="#ffffff" d="M 272.785156 279.277344 C 281.992188 279.277344 289.199219 286.457031 289.199219 295.699219 C 289.199219 304.90625 281.992188 312.085938 272.785156 312.085938 C 263.582031 312.085938 256.40625 304.90625 256.40625 295.699219 C 256.40625 286.457031 263.582031 279.277344 272.785156 279.277344 Z M 149.734375 279.277344 C 158.941406 279.277344 166.148438 286.457031 166.148438 295.699219 C 166.148438 304.90625 158.941406 312.085938 149.734375 312.085938 C 140.53125 312.085938 133.320312 304.90625 133.320312 295.699219 C 133.320312 286.457031 140.53125 279.277344 149.734375 279.277344 Z M 272.785156 254.667969 C 250.28125 254.667969 231.769531 273.183594 231.769531 295.699219 C 231.769531 318.210938 250.28125 336.730469 272.785156 336.730469 C 295.292969 336.730469 313.804688 318.210938 313.804688 295.699219 C 313.804688 273.183594 295.292969 254.667969 272.785156 254.667969 Z M 149.734375 254.667969 C 127.226562 254.667969 108.71875 273.183594 108.71875 295.699219 C 108.71875 318.210938 127.226562 336.730469 149.734375 336.730469 C 172.242188 336.730469 190.753906 318.210938 190.753906 295.699219 C 190.753906 273.183594 172.242188 254.667969 149.734375 254.667969 Z M 268.691406 127.441406 L 329.070312 127.441406 L 320.488281 164.378906 L 268.691406 164.378906 Z M 186.65625 127.441406 L 244.085938 127.441406 L 244.085938 164.378906 L 186.65625 164.378906 Z M 100.527344 127.441406 L 162.054688 127.441406 L 162.054688 164.378906 L 108.324219 164.378906 Z M 268.691406 65.894531 L 343.421875 65.894531 L 334.835938 102.832031 L 268.691406 102.832031 Z M 186.65625 65.894531 L 244.085938 65.894531 L 244.085938 102.832031 L 186.65625 102.832031 Z M 87.457031 65.894531 L 162.054688 65.894531 L 162.054688 102.832031 L 95.253906 102.832031 Z M 14.398438 0.25 C 7.582031 0.25 2.078125 5.757812 2.078125 12.574219 C 2.078125 19.359375 7.582031 24.863281 14.398438 24.863281 L 53.613281 24.863281 L 95.910156 224.515625 C 97.578125 232.019531 102.492188 238.28125 108.71875 238.246094 L 313.804688 238.246094 C 320.324219 238.3125 326.285156 232.445312 326.285156 225.925781 C 326.285156 219.4375 320.324219 213.535156 313.804688 213.636719 L 118.710938 213.636719 L 113.46875 188.988281 L 330.21875 188.988281 C 335.722656 188.957031 340.929688 184.761719 342.140625 179.386719 L 370.839844 56.292969 C 372.445312 49.148438 366.253906 41.347656 358.917969 41.285156 L 82.3125 41.285156 L 75.660156 9.984375 C 74.484375 4.546875 69.175781 0.25 63.605469 0.25 L 14.398438 0.25 " fill-opacity="1" fill-rule="nonzero"/></g></svg>