<svg xmlns="http://www.w3.org/2000/svg" xmlns:xlink="http://www.w3.org/1999/xlink" width="800" zoomAndPan="magnify" viewBox="0 0 600 149.999998" height="200" preserveAspectRatio="xMidYMid meet" version="1.0"><defs><g/><clipPath id="id1"><path d="M 3.925781 10.464844 L 218.800781 10.464844 L 218.800781 130.796875 L 3.925781 130.796875 Z M 3.925781 10.464844 " clip-rule="nonzero"/></clipPath><clipPath id="id2"><path d="M 7.648438 14.25 L 215 14.25 L 215 127.058594 L 7.648438 127.058594 Z M 7.648438 14.25 " clip-rule="nonzero"/></clipPath><clipPath id="id3"><path d="M 26 48.949219 L 196.804688 48.949219 L 196.804688 112 L 26 112 Z M 26 48.949219 " clip-rule="nonzero"/></clipPath><clipPath id="id4"><path d="M 43 82 L 65 82 L 65 117.707031 L 43 117.707031 Z M 43 82 " clip-rule="nonzero"/></clipPath><clipPath id="id5"><path d="M 72 90 L 89 90 L 89 117.707031 L 72 117.707031 Z M 72 90 " clip-rule="nonzero"/></clipPath><clipPath id="id6"><path d="M 99 94 L 112 94 L 112 117.707031 L 99 117.707031 Z M 99 94 " clip-rule="nonzero"/></clipPath><clipPath id="id7"><path d="M 161 85 L 181 85 L 181 117.707031 L 161 117.707031 Z M 161 85 " clip-rule="nonzero"/></clipPath></defs><g fill="#ffffff" fill-opacity="1"><g transform="translate(239.007164, 79.266307)"><g><path d="M 23.203125 0 L 32.6875 -39.773438 L 22.285156 -39.773438 L 16.574219 -11.21875 L 10.808594 -39.773438 L 0.457031 -39.773438 L 9.945312 0 Z M 23.203125 0 "/></g></g></g><g fill="#ffffff" fill-opacity="1"><g transform="translate(272.149527, 79.266307)"><g><path d="M 2.550781 -39.773438 L 2.550781 0 L 27.535156 0 L 27.535156 -8.363281 L 12.238281 -8.363281 L 12.238281 -16.113281 L 24.984375 -16.113281 L 24.984375 -24.476562 L 12.238281 -24.476562 L 12.238281 -31.410156 L 27.535156 -31.410156 L 27.535156 -39.773438 Z M 2.550781 -39.773438 "/></g></g></g><g fill="#ffffff" fill-opacity="1"><g transform="translate(301.722717, 79.266307)"><g><path d="M 32.636719 -39.773438 L 23.457031 -39.773438 L 23.457031 -25.496094 L 23.710938 -17.847656 L 12.75 -39.773438 L 2.550781 -39.773438 L 2.550781 0 L 11.726562 0 L 11.726562 -14.277344 L 11.472656 -21.925781 L 22.4375 0 L 32.636719 0 Z M 32.636719 -39.773438 "/></g></g></g><g fill="#ffffff" fill-opacity="1"><g transform="translate(336.904611, 79.266307)"><g><path d="M 19.378906 -31.410156 L 28.300781 -31.410156 L 28.300781 -39.773438 L 0.765625 -39.773438 L 0.765625 -31.410156 L 9.6875 -31.410156 L 9.6875 0 L 19.378906 0 Z M 19.378906 -31.410156 "/></g></g></g><g fill="#ffffff" fill-opacity="1"><g transform="translate(365.967911, 79.266307)"><g><path d="M 17.082031 0.714844 C 28.605469 0.714844 31.871094 -4.285156 31.871094 -12.644531 L 31.871094 -39.773438 L 22.183594 -39.773438 L 22.183594 -12.902344 C 22.183594 -9.738281 21.316406 -7.648438 17.082031 -7.648438 C 12.851562 -7.648438 11.984375 -9.738281 11.984375 -12.902344 L 11.984375 -39.773438 L 2.292969 -39.773438 L 2.292969 -12.644531 C 2.292969 -4.285156 5.558594 0.714844 17.082031 0.714844 Z M 17.082031 0.714844 "/></g></g></g><g fill="#ffffff" fill-opacity="1"><g transform="translate(400.130045, 79.266307)"><g><path d="M 12.238281 -13.664062 L 14.941406 -13.664062 L 20.140625 0 L 30.59375 0 L 24.476562 -14.992188 C 27.996094 -16.574219 30.59375 -19.734375 30.59375 -26.210938 L 30.59375 -27.230469 C 30.59375 -38.246094 22.996094 -39.773438 16.265625 -39.773438 L 2.550781 -39.773438 L 2.550781 0 L 12.238281 0 Z M 12.238281 -22.027344 L 12.238281 -31.410156 L 16.675781 -31.410156 C 18.5625 -31.410156 20.804688 -30.699219 20.804688 -26.925781 L 20.804688 -26.515625 C 20.804688 -22.742188 18.5625 -22.027344 16.675781 -22.027344 Z M 12.238281 -22.027344 "/></g></g></g><g fill="#ffffff" fill-opacity="1"><g transform="translate(432.507587, 79.266307)"><g><path d="M 2.550781 -39.773438 L 2.550781 0 L 27.535156 0 L 27.535156 -8.363281 L 12.238281 -8.363281 L 12.238281 -16.113281 L 24.984375 -16.113281 L 24.984375 -24.476562 L 12.238281 -24.476562 L 12.238281 -31.410156 L 27.535156 -31.410156 L 27.535156 -39.773438 Z M 2.550781 -39.773438 "/></g></g></g><g fill="#272b35" fill-opacity="1"><g transform="translate(462.073558, 79.266307)"><g/></g></g><g fill="#1c7052" fill-opacity="1"><g transform="translate(472.268869, 79.266307)"><g><path d="M 21.925781 -39.773438 L 21.925781 -24.476562 L 12.238281 -24.476562 L 12.238281 -39.773438 L 2.550781 -39.773438 L 2.550781 0 L 12.238281 0 L 12.238281 -16.113281 L 21.925781 -16.113281 L 21.925781 0 L 31.617188 0 L 31.617188 -39.773438 Z M 21.925781 -39.773438 "/></g></g></g><g fill="#1c7052" fill-opacity="1"><g transform="translate(506.431004, 79.266307)"><g><path d="M 12.492188 -39.773438 L 2.804688 -39.773438 L 2.804688 0 L 12.492188 0 Z M 12.492188 -39.773438 "/></g></g></g><g fill="#1c7052" fill-opacity="1"><g transform="translate(521.727485, 79.266307)"><g><path d="M 26.261719 0 L 26.261719 -8.363281 L 12.238281 -8.363281 L 12.238281 -39.773438 L 2.550781 -39.773438 L 2.550781 0 Z M 26.261719 0 "/></g></g></g><g fill="#1c7052" fill-opacity="1"><g transform="translate(548.751264, 79.266307)"><g><path d="M 26.261719 0 L 26.261719 -8.363281 L 12.238281 -8.363281 L 12.238281 -39.773438 L 2.550781 -39.773438 L 2.550781 0 Z M 26.261719 0 "/></g></g></g><g clip-path="url(#id1)"><path fill="#124734" d="M 218.542969 63.636719 C 217.992188 61.472656 216.566406 59.589844 214.628906 58.472656 C 206.628906 53.855469 198.65625 49.824219 190.3125 46.179688 L 194.558594 35.226562 C 195.367188 33.136719 195.300781 30.773438 194.371094 28.734375 C 193.441406 26.699219 191.703125 25.101562 189.597656 24.34375 C 164.039062 15.164062 137.714844 10.515625 111.363281 10.515625 C 85.011719 10.515625 58.6875 15.164062 33.125 24.339844 C 31.019531 25.097656 29.28125 26.695312 28.351562 28.734375 C 27.421875 30.773438 27.351562 33.140625 28.164062 35.226562 L 32.410156 46.183594 C 24.0625 49.828125 16.089844 53.859375 8.09375 58.476562 C 6.160156 59.59375 4.738281 61.476562 4.183594 63.636719 C 3.628906 65.800781 3.980469 68.140625 5.140625 70.054688 L 39.703125 126.753906 C 41.207031 129.222656 43.933594 130.75 46.824219 130.75 L 175.898438 130.75 C 178.789062 130.75 181.515625 129.21875 183.027344 126.75 L 217.585938 70.046875 C 218.75 68.140625 219.097656 65.800781 218.542969 63.636719 Z M 218.542969 63.636719 " fill-opacity="1" fill-rule="nonzero"/></g><g clip-path="url(#id2)"><path fill="#ffffff" d="M 214.703125 64.554688 C 214.386719 63.316406 213.570312 62.242188 212.464844 61.601562 C 204.113281 56.78125 195.796875 52.609375 187.035156 48.851562 C 186.160156 48.472656 185.738281 47.46875 186.082031 46.578125 L 190.929688 34.054688 C 191.394531 32.859375 191.351562 31.503906 190.820312 30.339844 C 190.292969 29.175781 189.296875 28.257812 188.097656 27.828125 C 163.011719 18.820312 137.179688 14.25 111.328125 14.25 C 85.476562 14.25 59.644531 18.820312 34.554688 27.828125 C 33.355469 28.257812 32.359375 29.175781 31.832031 30.339844 C 31.296875 31.507812 31.257812 32.859375 31.71875 34.050781 L 36.566406 46.574219 C 36.910156 47.464844 36.488281 48.46875 35.613281 48.847656 C 26.855469 52.609375 18.535156 56.785156 10.183594 61.601562 C 9.082031 62.242188 8.265625 63.316406 7.949219 64.554688 C 7.636719 65.792969 7.835938 67.132812 8.496094 68.222656 L 42.941406 124.773438 C 43.796875 126.175781 45.359375 127.054688 47.007812 127.054688 L 175.640625 127.054688 C 177.289062 127.054688 178.851562 126.175781 179.710938 124.769531 L 214.15625 68.21875 C 214.824219 67.132812 215.019531 65.792969 214.703125 64.554688 Z M 211.628906 66.683594 C 200.152344 85.53125 188.667969 104.382812 177.191406 123.230469 C 176.863281 123.769531 176.277344 124.097656 175.648438 124.097656 L 47.011719 124.097656 C 46.382812 124.097656 45.796875 123.769531 45.472656 123.230469 C 33.992188 104.382812 22.507812 85.53125 11.03125 66.683594 C 10.503906 65.816406 10.789062 64.679688 11.667969 64.167969 C 20.652344 58.980469 29.785156 54.460938 39.371094 50.480469 C 40.277344 50.101562 40.722656 49.078125 40.367188 48.164062 C 38.40625 43.105469 36.445312 38.042969 34.484375 32.980469 C 34.117188 32.03125 34.605469 30.957031 35.5625 30.613281 C 85.332031 12.734375 137.339844 12.738281 187.105469 30.613281 C 188.0625 30.957031 188.546875 32.03125 188.183594 32.980469 C 186.226562 38.039062 184.261719 43.101562 182.304688 48.164062 C 181.949219 49.078125 182.394531 50.101562 183.296875 50.480469 C 192.875 54.460938 202.011719 58.976562 211 64.167969 C 211.871094 64.675781 212.15625 65.8125 211.628906 66.683594 Z M 211.628906 66.683594 " fill-opacity="1" fill-rule="nonzero"/></g><g clip-path="url(#id3)"><path fill="#ffffff" d="M 195.980469 80.296875 L 173.773438 72.464844 L 155.792969 57.398438 C 155.34375 57.019531 154.679688 57.03125 154.242188 57.425781 L 137.054688 72.9375 L 132.191406 71.421875 C 131.824219 71.308594 131.425781 71.378906 131.121094 71.609375 L 130.03125 72.441406 C 130.371094 71.011719 130.542969 69.546875 130.542969 68.046875 C 130.539062 57.511719 121.949219 48.949219 111.390625 48.949219 C 100.832031 48.949219 92.242188 57.511719 92.242188 68.042969 C 92.242188 69.402344 92.390625 70.746094 92.667969 72.054688 L 78.472656 63.898438 L 70.242188 55.316406 C 69.796875 54.851562 69.054688 54.828125 68.582031 55.269531 L 48.125 74.335938 L 39.816406 70.453125 C 39.398438 70.261719 38.902344 70.324219 38.550781 70.625 L 26.429688 80.890625 C 25.929688 81.3125 25.871094 82.054688 26.292969 82.550781 C 26.714844 83.050781 27.460938 83.109375 27.960938 82.6875 L 39.503906 72.914062 L 47.847656 76.8125 C 48.285156 77.015625 48.800781 76.9375 49.15625 76.605469 L 69.34375 57.789062 L 76.75 65.511719 L 82.339844 77.296875 L 72.664062 81.785156 C 72.558594 81.835938 72.457031 81.902344 72.371094 81.980469 L 65.433594 88.210938 C 64.949219 88.648438 64.910156 89.394531 65.347656 89.878906 C 65.582031 90.136719 65.90625 90.265625 66.226562 90.265625 C 66.507812 90.265625 66.789062 90.167969 67.015625 89.960938 L 73.820312 83.847656 L 83.433594 79.382812 L 86.550781 84.671875 C 86.6875 84.902344 86.898438 85.078125 87.152344 85.175781 L 97.441406 89.050781 C 97.578125 89.101562 97.71875 89.125 97.855469 89.125 C 98.335938 89.125 98.78125 88.835938 98.964844 88.363281 C 99.195312 87.753906 98.886719 87.074219 98.277344 86.84375 L 88.375 83.113281 L 84.953125 77.308594 L 80.417969 67.738281 L 111.867188 85.808594 L 114.1875 87.144531 C 114.371094 87.246094 114.570312 87.300781 114.777344 87.300781 L 126.332031 87.300781 L 144.191406 98.425781 L 137.777344 102.773438 L 125.1875 105.609375 C 125.007812 105.648438 124.839844 105.730469 124.695312 105.851562 L 120.125 109.621094 C 119.621094 110.035156 119.550781 110.777344 119.964844 111.277344 C 120.199219 111.5625 120.535156 111.707031 120.878906 111.707031 C 121.144531 111.707031 121.410156 111.621094 121.628906 111.4375 L 125.988281 107.847656 L 138.519531 105.03125 C 138.660156 105 138.796875 104.9375 138.921875 104.855469 L 149.992188 97.351562 L 158.816406 100.203125 C 159.4375 100.40625 160.105469 100.0625 160.304688 99.449219 C 160.507812 98.828125 160.167969 98.164062 159.546875 97.960938 L 150.171875 94.929688 C 149.820312 94.820312 149.441406 94.875 149.140625 95.078125 L 146.328125 96.984375 L 127.300781 85.128906 C 127.109375 85.015625 126.894531 84.949219 126.675781 84.949219 L 115.097656 84.949219 L 114.847656 84.804688 L 125.421875 78.898438 C 125.46875 78.871094 125.515625 78.839844 125.5625 78.804688 L 132.0625 73.859375 L 136.992188 75.398438 C 137.390625 75.519531 137.828125 75.421875 138.136719 75.144531 L 155.058594 59.871094 L 171.425781 73.589844 L 166.316406 78.683594 L 159.832031 78.683594 C 159.585938 78.683594 159.34375 78.761719 159.144531 78.90625 L 149.882812 85.519531 C 149.355469 85.894531 149.230469 86.632812 149.609375 87.164062 C 149.84375 87.484375 150.203125 87.65625 150.574219 87.65625 C 150.8125 87.65625 151.050781 87.585938 151.257812 87.4375 L 160.214844 81.042969 L 166.808594 81.042969 C 167.121094 81.042969 167.421875 80.921875 167.644531 80.699219 L 173.484375 74.878906 L 195.195312 82.539062 C 195.808594 82.757812 196.484375 82.433594 196.703125 81.820312 C 196.917969 81.191406 196.59375 80.515625 195.980469 80.296875 Z M 124.195312 76.875 L 112.464844 83.429688 L 95.601562 73.742188 C 94.941406 71.917969 94.601562 70 94.601562 68.042969 C 94.601562 58.8125 102.132812 51.304688 111.386719 51.304688 C 120.644531 51.304688 128.171875 58.8125 128.171875 68.042969 C 128.171875 70.46875 127.664062 72.808594 126.660156 74.996094 Z M 124.195312 76.875 " fill-opacity="1" fill-rule="nonzero"/></g><g clip-path="url(#id4)"><path fill="#ffffff" d="M 63.734375 107.734375 C 60.101562 106.265625 56.507812 103.144531 55.382812 102.121094 L 55.382812 99.027344 C 56.917969 100.261719 59.152344 101.855469 61.480469 102.796875 C 61.625 102.851562 61.777344 102.878906 61.921875 102.878906 C 62.390625 102.878906 62.832031 102.605469 63.019531 102.144531 C 63.265625 101.542969 62.976562 100.855469 62.371094 100.609375 C 59.371094 99.394531 56.390625 96.835938 55.386719 95.925781 L 55.386719 92.792969 C 56.511719 93.65625 57.988281 94.644531 59.523438 95.269531 C 59.667969 95.328125 59.820312 95.355469 59.964844 95.355469 C 60.433594 95.355469 60.875 95.078125 61.0625 94.621094 C 61.308594 94.019531 61.019531 93.332031 60.414062 93.085938 C 58.304688 92.230469 56.203125 90.464844 55.390625 89.734375 L 55.390625 86.507812 C 55.957031 86.890625 56.59375 87.265625 57.253906 87.535156 C 57.859375 87.78125 58.550781 87.488281 58.792969 86.886719 C 59.039062 86.285156 58.75 85.597656 58.144531 85.351562 C 56.609375 84.726562 55.046875 83.234375 55.03125 83.21875 C 55.011719 83.199219 54.988281 83.183594 54.964844 83.164062 C 54.929688 83.136719 54.894531 83.105469 54.855469 83.082031 C 54.828125 83.0625 54.792969 83.046875 54.757812 83.027344 C 54.722656 83.011719 54.691406 82.992188 54.65625 82.972656 C 54.617188 82.960938 54.582031 82.949219 54.539062 82.941406 C 54.503906 82.929688 54.472656 82.917969 54.4375 82.910156 C 54.375 82.894531 54.3125 82.890625 54.25 82.890625 C 54.234375 82.890625 54.222656 82.886719 54.207031 82.886719 C 54.195312 82.886719 54.179688 82.890625 54.167969 82.890625 C 54.105469 82.890625 54.042969 82.894531 53.984375 82.90625 C 53.945312 82.914062 53.914062 82.925781 53.878906 82.9375 C 53.839844 82.945312 53.796875 82.957031 53.761719 82.972656 C 53.722656 82.984375 53.691406 83.003906 53.660156 83.023438 C 53.625 83.042969 53.59375 83.058594 53.558594 83.078125 C 53.523438 83.105469 53.488281 83.132812 53.453125 83.160156 C 53.429688 83.179688 53.40625 83.195312 53.386719 83.214844 C 53.367188 83.230469 51.8125 84.726562 50.273438 85.347656 C 49.667969 85.59375 49.378906 86.28125 49.625 86.882812 C 49.8125 87.339844 50.253906 87.621094 50.722656 87.621094 C 50.867188 87.621094 51.019531 87.59375 51.164062 87.53125 C 51.824219 87.265625 52.464844 86.890625 53.03125 86.507812 L 53.03125 89.738281 C 52.21875 90.464844 50.121094 92.230469 48.007812 93.089844 C 47.402344 93.335938 47.113281 94.023438 47.359375 94.625 C 47.601562 95.226562 48.289062 95.519531 48.898438 95.273438 C 50.429688 94.652344 51.910156 93.660156 53.035156 92.796875 L 53.035156 95.929688 C 52.03125 96.839844 49.058594 99.394531 46.050781 100.613281 C 45.445312 100.859375 45.15625 101.546875 45.402344 102.148438 C 45.648438 102.75 46.332031 103.042969 46.941406 102.796875 C 49.265625 101.859375 51.503906 100.265625 53.035156 99.03125 L 53.035156 102.125 C 51.917969 103.144531 48.328125 106.261719 44.6875 107.734375 C 44.082031 107.980469 43.792969 108.667969 44.039062 109.269531 C 44.285156 109.871094 44.96875 110.160156 45.578125 109.921875 C 48.46875 108.75 51.242188 106.714844 53.035156 105.242188 L 53.035156 116.53125 C 53.035156 117.179688 53.566406 117.707031 54.21875 117.707031 C 54.871094 117.707031 55.398438 117.179688 55.398438 116.53125 L 55.398438 105.242188 C 57.191406 106.714844 59.96875 108.75 62.859375 109.921875 C 63.003906 109.976562 63.15625 110.003906 63.304688 110.003906 C 63.769531 110.003906 64.210938 109.730469 64.398438 109.269531 C 64.628906 108.667969 64.335938 107.980469 63.734375 107.734375 Z M 63.734375 107.734375 " fill-opacity="1" fill-rule="nonzero"/></g><g clip-path="url(#id5)"><path fill="#ffffff" d="M 87.878906 109.429688 C 85.171875 108.332031 82.480469 106.039062 81.53125 105.183594 L 81.53125 103.421875 C 82.714844 104.335938 84.292969 105.402344 85.929688 106.066406 C 86.074219 106.121094 86.226562 106.148438 86.371094 106.148438 C 86.839844 106.148438 87.28125 105.875 87.46875 105.414062 C 87.714844 104.8125 87.421875 104.125 86.816406 103.878906 C 84.589844 102.980469 82.375 101.105469 81.53125 100.351562 L 81.53125 98.546875 C 82.359375 99.144531 83.363281 99.777344 84.398438 100.195312 C 84.546875 100.253906 84.695312 100.28125 84.84375 100.28125 C 85.308594 100.28125 85.75 100.007812 85.9375 99.546875 C 86.183594 98.945312 85.894531 98.253906 85.289062 98.011719 C 83.753906 97.386719 82.210938 96.121094 81.53125 95.519531 L 81.53125 93.59375 C 81.882812 93.804688 82.25 94.003906 82.628906 94.160156 C 83.234375 94.402344 83.921875 94.109375 84.167969 93.507812 C 84.414062 92.90625 84.121094 92.21875 83.515625 91.972656 C 82.367188 91.503906 81.183594 90.375 81.175781 90.363281 C 81.152344 90.34375 81.132812 90.332031 81.113281 90.3125 C 81.074219 90.28125 81.042969 90.253906 81 90.226562 C 80.976562 90.207031 80.949219 90.199219 80.925781 90.183594 C 80.882812 90.160156 80.839844 90.136719 80.796875 90.121094 C 80.773438 90.113281 80.75 90.105469 80.730469 90.097656 C 80.679688 90.082031 80.628906 90.066406 80.574219 90.054688 C 80.566406 90.054688 80.554688 90.054688 80.550781 90.050781 C 80.484375 90.042969 80.417969 90.03125 80.351562 90.03125 C 80.28125 90.03125 80.21875 90.042969 80.152344 90.050781 C 80.144531 90.050781 80.136719 90.050781 80.128906 90.054688 C 80.074219 90.066406 80.023438 90.082031 79.972656 90.097656 C 79.953125 90.105469 79.925781 90.109375 79.90625 90.121094 C 79.863281 90.136719 79.820312 90.164062 79.777344 90.183594 C 79.753906 90.199219 79.726562 90.207031 79.703125 90.226562 C 79.660156 90.253906 79.628906 90.28125 79.589844 90.3125 C 79.570312 90.332031 79.546875 90.34375 79.527344 90.363281 C 79.519531 90.375 78.332031 91.507812 77.183594 91.976562 C 76.582031 92.21875 76.289062 92.910156 76.535156 93.511719 C 76.722656 93.96875 77.164062 94.246094 77.632812 94.246094 C 77.78125 94.246094 77.929688 94.21875 78.078125 94.160156 C 78.457031 94.003906 78.824219 93.804688 79.171875 93.59375 L 79.171875 95.519531 C 78.492188 96.121094 76.953125 97.386719 75.417969 98.011719 C 74.8125 98.253906 74.523438 98.945312 74.765625 99.546875 C 75.011719 100.148438 75.699219 100.441406 76.308594 100.195312 C 77.34375 99.777344 78.347656 99.144531 79.171875 98.546875 L 79.171875 100.351562 C 78.328125 101.109375 76.117188 102.980469 73.890625 103.878906 C 73.285156 104.125 72.996094 104.8125 73.238281 105.414062 C 73.484375 106.015625 74.167969 106.304688 74.777344 106.066406 C 76.414062 105.402344 77.992188 104.335938 79.171875 103.421875 L 79.171875 105.183594 C 78.222656 106.039062 75.53125 108.335938 72.828125 109.429688 C 72.222656 109.675781 71.933594 110.363281 72.179688 110.964844 C 72.425781 111.570312 73.109375 111.859375 73.71875 111.617188 C 75.78125 110.78125 77.769531 109.390625 79.175781 108.273438 L 79.175781 116.53125 C 79.175781 117.179688 79.707031 117.707031 80.359375 117.707031 C 81.011719 117.707031 81.539062 117.179688 81.539062 116.53125 L 81.539062 108.273438 C 82.945312 109.390625 84.933594 110.78125 86.996094 111.617188 C 87.144531 111.675781 87.292969 111.703125 87.441406 111.703125 C 87.910156 111.703125 88.347656 111.425781 88.539062 110.964844 C 88.773438 110.363281 88.484375 109.675781 87.878906 109.429688 Z M 87.878906 109.429688 " fill-opacity="1" fill-rule="nonzero"/></g><g clip-path="url(#id6)"><path fill="#ffffff" d="M 110.691406 108.4375 C 108.984375 107.746094 107.277344 106.332031 106.554688 105.695312 L 106.554688 103.582031 C 107.160156 103.996094 107.851562 104.40625 108.5625 104.695312 C 108.710938 104.753906 108.859375 104.78125 109.007812 104.78125 C 109.476562 104.78125 109.914062 104.503906 110.105469 104.046875 C 110.351562 103.441406 110.058594 102.753906 109.453125 102.507812 C 108.292969 102.039062 107.125 101.097656 106.554688 100.601562 L 106.554688 98.359375 C 106.742188 98.460938 106.933594 98.554688 107.132812 98.632812 C 107.28125 98.691406 107.429688 98.71875 107.578125 98.71875 C 108.042969 98.71875 108.484375 98.441406 108.671875 97.984375 C 108.917969 97.378906 108.628906 96.691406 108.023438 96.445312 C 107.285156 96.148438 106.457031 95.4375 106.195312 95.191406 C 106.175781 95.171875 106.15625 95.160156 106.136719 95.140625 C 106.097656 95.109375 106.0625 95.078125 106.023438 95.050781 C 106 95.035156 105.972656 95.023438 105.949219 95.011719 C 105.90625 94.984375 105.863281 94.960938 105.816406 94.945312 C 105.796875 94.9375 105.773438 94.929688 105.753906 94.925781 C 105.703125 94.90625 105.652344 94.890625 105.597656 94.878906 C 105.589844 94.878906 105.578125 94.878906 105.570312 94.878906 C 105.507812 94.867188 105.441406 94.855469 105.375 94.855469 C 105.304688 94.855469 105.242188 94.867188 105.175781 94.878906 C 105.167969 94.878906 105.160156 94.878906 105.152344 94.878906 C 105.097656 94.890625 105.046875 94.90625 104.996094 94.925781 C 104.972656 94.929688 104.949219 94.933594 104.929688 94.945312 C 104.886719 94.960938 104.839844 94.988281 104.800781 95.011719 C 104.777344 95.023438 104.75 95.035156 104.726562 95.050781 C 104.683594 95.078125 104.648438 95.109375 104.613281 95.140625 C 104.589844 95.15625 104.566406 95.171875 104.550781 95.191406 C 104.292969 95.4375 103.460938 96.148438 102.722656 96.445312 C 102.121094 96.691406 101.828125 97.378906 102.074219 97.984375 C 102.320312 98.585938 103.007812 98.878906 103.613281 98.632812 C 103.8125 98.554688 104.003906 98.460938 104.191406 98.359375 L 104.191406 100.601562 C 103.550781 101.160156 102.390625 102.066406 101.292969 102.507812 C 100.6875 102.753906 100.398438 103.441406 100.644531 104.046875 C 100.890625 104.648438 101.578125 104.9375 102.183594 104.695312 C 102.898438 104.40625 103.585938 103.996094 104.191406 103.582031 L 104.191406 105.695312 C 103.476562 106.332031 101.769531 107.742188 100.054688 108.4375 C 99.453125 108.683594 99.160156 109.371094 99.402344 109.972656 C 99.59375 110.429688 100.03125 110.710938 100.5 110.710938 C 100.648438 110.710938 100.796875 110.683594 100.945312 110.625 C 102.128906 110.144531 103.273438 109.410156 104.191406 108.726562 L 104.191406 116.53125 C 104.191406 117.179688 104.722656 117.707031 105.375 117.707031 C 106.027344 117.707031 106.554688 117.179688 106.554688 116.53125 L 106.554688 108.726562 C 107.472656 109.410156 108.617188 110.144531 109.804688 110.625 C 110.40625 110.867188 111.097656 110.578125 111.34375 109.972656 C 111.585938 109.371094 111.296875 108.683594 110.691406 108.4375 Z M 110.691406 108.4375 " fill-opacity="1" fill-rule="nonzero"/></g><g clip-path="url(#id7)"><path fill="#ffffff" d="M 179.976562 108.460938 C 176.742188 107.152344 173.535156 104.386719 172.492188 103.4375 L 172.492188 100.925781 C 173.878906 102.023438 175.832031 103.382812 177.851562 104.207031 C 178 104.261719 178.148438 104.289062 178.296875 104.289062 C 178.765625 104.289062 179.207031 104.015625 179.394531 103.554688 C 179.640625 102.953125 179.34375 102.265625 178.742188 102.019531 C 176.078125 100.9375 173.425781 98.679688 172.488281 97.835938 L 172.488281 95.273438 C 173.488281 96.023438 174.757812 96.855469 176.078125 97.390625 C 176.222656 97.449219 176.375 97.476562 176.519531 97.476562 C 176.988281 97.476562 177.429688 97.199219 177.617188 96.738281 C 177.863281 96.136719 177.574219 95.449219 176.96875 95.203125 C 175.105469 94.453125 173.25 92.898438 172.492188 92.222656 L 172.492188 89.5625 C 172.964844 89.871094 173.488281 90.167969 174.023438 90.386719 C 174.171875 90.441406 174.320312 90.472656 174.46875 90.472656 C 174.9375 90.472656 175.378906 90.195312 175.566406 89.738281 C 175.8125 89.136719 175.519531 88.445312 174.917969 88.203125 C 173.546875 87.648438 172.148438 86.308594 172.132812 86.292969 C 172.113281 86.273438 172.09375 86.261719 172.066406 86.242188 C 172.03125 86.214844 171.996094 86.183594 171.957031 86.15625 C 171.929688 86.136719 171.902344 86.128906 171.875 86.113281 C 171.835938 86.089844 171.792969 86.066406 171.75 86.050781 C 171.726562 86.039062 171.699219 86.035156 171.675781 86.027344 C 171.628906 86.007812 171.578125 85.996094 171.53125 85.984375 C 171.507812 85.980469 171.484375 85.980469 171.460938 85.976562 C 171.410156 85.972656 171.359375 85.960938 171.304688 85.960938 C 171.261719 85.960938 171.21875 85.96875 171.171875 85.976562 C 171.140625 85.976562 171.113281 85.976562 171.082031 85.984375 C 171.035156 85.996094 170.996094 86.007812 170.949219 86.023438 C 170.921875 86.03125 170.890625 86.039062 170.859375 86.050781 C 170.816406 86.066406 170.785156 86.085938 170.742188 86.109375 C 170.710938 86.125 170.679688 86.136719 170.652344 86.15625 C 170.617188 86.179688 170.582031 86.210938 170.546875 86.242188 C 170.527344 86.257812 170.503906 86.273438 170.484375 86.292969 C 170.46875 86.304688 169.070312 87.644531 167.699219 88.199219 C 167.09375 88.445312 166.804688 89.132812 167.050781 89.734375 C 167.296875 90.335938 167.984375 90.625 168.589844 90.382812 C 169.128906 90.164062 169.648438 89.871094 170.125 89.5625 L 170.125 92.21875 C 169.367188 92.894531 167.507812 94.445312 165.648438 95.199219 C 165.042969 95.445312 164.753906 96.132812 165 96.738281 C 165.246094 97.339844 165.929688 97.632812 166.539062 97.386719 C 167.855469 96.851562 169.128906 96.019531 170.128906 95.269531 L 170.128906 97.832031 C 169.191406 98.679688 166.550781 100.9375 163.875 102.015625 C 163.269531 102.261719 162.980469 102.949219 163.222656 103.550781 C 163.46875 104.152344 164.160156 104.445312 164.761719 104.203125 C 166.789062 103.382812 168.738281 102.019531 170.128906 100.921875 L 170.128906 103.4375 C 169.082031 104.390625 165.875 107.15625 162.640625 108.460938 C 162.039062 108.707031 161.746094 109.394531 161.992188 110 C 162.238281 110.601562 162.925781 110.890625 163.535156 110.648438 C 166.0625 109.625 168.5 107.871094 170.132812 106.546875 L 170.132812 116.53125 C 170.132812 117.179688 170.660156 117.707031 171.3125 117.707031 C 171.964844 117.707031 172.496094 117.179688 172.496094 116.53125 L 172.496094 106.546875 C 174.128906 107.871094 176.558594 109.625 179.09375 110.648438 C 179.238281 110.707031 179.390625 110.734375 179.535156 110.734375 C 180.003906 110.734375 180.445312 110.457031 180.632812 110 C 180.871094 109.394531 180.582031 108.707031 179.976562 108.460938 Z M 179.976562 108.460938 " fill-opacity="1" fill-rule="nonzero"/></g><g fill="#ffffff" fill-opacity="1"><g transform="translate(43.296655, 50.450287)"><g><path d="M 8.628906 -2.972656 L 7.054688 -18.976562 L 3.1875 -17.644531 L 4.722656 -6.296875 L -1.078125 -16.175781 L -4.925781 -14.847656 L 3.699219 -1.273438 Z M 8.628906 -2.972656 "/></g></g></g><g fill="#ffffff" fill-opacity="1"><g transform="translate(56.182754, 46.054193)"><g><path d="M -3.113281 -15.363281 L 0.96875 -0.261719 L 10.453125 -2.824219 L 9.597656 -6 L 3.789062 -4.429688 L 2.992188 -7.375 L 7.832031 -8.683594 L 6.976562 -11.855469 L 2.132812 -10.546875 L 1.421875 -13.183594 L 7.230469 -14.75 L 6.371094 -17.925781 Z M -3.113281 -15.363281 "/></g></g></g><g fill="#ffffff" fill-opacity="1"><g transform="translate(67.960061, 42.851269)"><g><path d="M 9.578125 -17.824219 L 6.035156 -17.128906 L 7.121094 -11.617188 L 7.796875 -8.683594 L 1.90625 -16.316406 L -2.03125 -15.542969 L 0.984375 -0.191406 L 4.527344 -0.890625 L 3.445312 -6.398438 L 2.765625 -9.332031 L 8.660156 -1.699219 L 12.59375 -2.472656 Z M 9.578125 -17.824219 "/></g></g></g><g fill="#ffffff" fill-opacity="1"><g transform="translate(82.111677, 40.134245)"><g><path d="M 6.027344 -13.203125 L 9.511719 -13.640625 L 9.101562 -16.902344 L -1.644531 -15.558594 L -1.234375 -12.296875 L 2.246094 -12.730469 L 3.78125 -0.472656 L 7.5625 -0.945312 Z M 6.027344 -13.203125 "/></g></g></g><g fill="#ffffff" fill-opacity="1"><g transform="translate(94.027815, 38.628239)"><g><path d="M 6.722656 -0.0976562 C 11.25 -0.351562 12.421875 -2.382812 12.234375 -5.667969 L 11.636719 -16.320312 L 7.835938 -16.105469 L 8.425781 -5.554688 C 8.496094 -4.3125 8.203125 -3.472656 6.539062 -3.378906 C 4.878906 -3.285156 4.492188 -4.089844 4.421875 -5.328125 L 3.828125 -15.882812 L 0.0234375 -15.667969 L 0.621094 -5.015625 C 0.808594 -1.734375 2.199219 0.15625 6.722656 -0.0976562 Z M 6.722656 -0.0976562 "/></g></g></g><g fill="#ffffff" fill-opacity="1"><g transform="translate(108.007782, 37.876793)"><g><path d="M 4.898438 -5.296875 L 5.960938 -5.28125 L 7.921875 0.125 L 12.03125 0.191406 L 9.71875 -5.742188 C 11.113281 -6.34375 12.152344 -7.570312 12.195312 -10.117188 L 12.199219 -10.519531 C 12.269531 -14.847656 9.289062 -15.5 6.644531 -15.539062 L 1.25 -15.625 L 1.003906 0.015625 L 4.8125 0.0742188 Z M 4.949219 -8.585938 L 5.007812 -12.277344 L 6.753906 -12.25 C 7.492188 -12.238281 8.371094 -11.941406 8.347656 -10.457031 L 8.347656 -10.296875 C 8.324219 -8.8125 7.4375 -8.546875 6.695312 -8.558594 Z M 4.949219 -8.585938 "/></g></g></g><g fill="#ffffff" fill-opacity="1"><g transform="translate(121.323447, 38.124793)"><g><path d="M 2.296875 -15.507812 L 1 0.0820312 L 10.792969 0.898438 L 11.066406 -2.378906 L 5.070312 -2.878906 L 5.320312 -5.917969 L 10.316406 -5.5 L 10.589844 -8.777344 L 5.59375 -9.195312 L 5.820312 -11.914062 L 11.816406 -11.414062 L 12.089844 -14.691406 Z M 2.296875 -15.507812 "/></g></g></g><g fill="#ffffff" fill-opacity="1"><g transform="translate(133.583844, 39.244569)"><g/></g></g><g fill="#ffffff" fill-opacity="1"><g transform="translate(138.234706, 39.740868)"><g><path d="M 11.246094 -13.878906 L 10.183594 -7.957031 L 6.433594 -8.628906 L 7.492188 -14.550781 L 3.742188 -15.222656 L 0.988281 0.175781 L 4.738281 0.847656 L 5.855469 -5.390625 L 9.605469 -4.71875 L 8.488281 1.519531 L 12.238281 2.191406 L 14.996094 -13.207031 Z M 11.246094 -13.878906 "/></g></g></g><g fill="#ffffff" fill-opacity="1"><g transform="translate(152.065804, 42.336027)"><g><path d="M 8.371094 -14.097656 L 4.664062 -14.972656 L 1.074219 0.253906 L 4.78125 1.128906 Z M 8.371094 -14.097656 "/></g></g></g><g fill="#ffffff" fill-opacity="1"><g transform="translate(158.584717, 43.834446)"><g><path d="M 9.929688 2.84375 L 10.835938 -0.316406 L 5.53125 -1.835938 L 8.933594 -13.714844 L 5.269531 -14.761719 L 0.964844 0.277344 Z M 9.929688 2.84375 "/></g></g></g><g fill="#ffffff" fill-opacity="1"><g transform="translate(169.39247, 46.948808)"><g><path d="M 9.742188 3.425781 L 10.835938 0.324219 L 5.632812 -1.507812 L 9.730469 -13.160156 L 6.136719 -14.425781 L 0.945312 0.332031 Z M 9.742188 3.425781 "/></g></g></g><g fill="#ffffff" fill-opacity="1"><g transform="translate(248.089195, 111.931423)"><g><path d="M 6.613281 -21.058594 L 1.484375 -21.058594 L 1.484375 0 L 6.613281 0 Z M 6.613281 -21.058594 "/></g></g></g><g fill="#ffffff" fill-opacity="1"><g transform="translate(256.189197, 111.931423)"><g><path d="M 14.878906 0 L 14.878906 -9.585938 C 14.878906 -12.148438 13.796875 -14.6875 10.421875 -14.6875 C 8.289062 -14.6875 6.832031 -13.796875 5.886719 -12.527344 L 5.5625 -14.308594 L 1.078125 -14.308594 L 1.351562 -10.261719 L 1.351562 0 L 6.316406 0 L 6.316406 -9.316406 C 6.589844 -9.71875 7.316406 -10.421875 8.398438 -10.421875 C 9.746094 -10.421875 9.910156 -9.449219 9.910156 -8.773438 L 9.910156 0 Z M 14.878906 0 "/></g></g></g><g fill="#ffffff" fill-opacity="1"><g transform="translate(272.254206, 111.931423)"><g><path d="M 7.15625 -3.347656 C 6.128906 -3.347656 5.695312 -3.808594 5.695312 -4.589844 L 0.757812 -4.589844 L 0.757812 -4.453125 C 0.757812 -1.484375 2.941406 0.378906 7.15625 0.378906 C 11.449219 0.378906 13.554688 -1.484375 13.554688 -4.617188 L 13.554688 -4.886719 C 13.554688 -8.019531 10.960938 -8.667969 7.371094 -8.964844 C 6.15625 -9.070312 5.804688 -9.316406 5.804688 -9.988281 C 5.804688 -10.558594 6.265625 -10.960938 7.15625 -10.960938 C 8.046875 -10.960938 8.503906 -10.449219 8.503906 -9.585938 L 13.363281 -9.585938 L 13.363281 -9.71875 C 13.363281 -12.878906 11.449219 -14.6875 7.15625 -14.6875 C 3.753906 -14.6875 0.945312 -13.363281 0.945312 -9.828125 L 0.945312 -9.558594 C 0.945312 -6.695312 2.863281 -5.804688 6.964844 -5.480469 C 8.316406 -5.371094 8.585938 -4.996094 8.585938 -4.402344 C 8.585938 -3.835938 8.234375 -3.347656 7.15625 -3.347656 Z M 7.15625 -3.347656 "/></g></g></g><g fill="#ffffff" fill-opacity="1"><g transform="translate(286.564206, 111.931423)"><g><path d="M 7.53125 -14.308594 L 7.53125 -18.359375 L 2.566406 -18.359375 L 2.566406 -14.308594 L 0.40625 -14.308594 L 0.40625 -9.988281 L 2.566406 -9.988281 L 2.566406 -5.265625 C 2.566406 -1.078125 4.859375 0.378906 8.289062 0.378906 C 9.640625 0.378906 10.449219 0.136719 10.691406 0 L 10.691406 -4.050781 C 10.558594 -3.996094 9.882812 -3.886719 9.449219 -3.886719 C 8.316406 -3.886719 7.53125 -4.183594 7.53125 -5.804688 L 7.53125 -9.988281 L 10.960938 -9.988281 L 10.960938 -14.308594 Z M 7.53125 -14.308594 "/></g></g></g><g fill="#ffffff" fill-opacity="1"><g transform="translate(298.444214, 111.931423)"><g><path d="M 9.613281 -14.6875 C 7.992188 -14.6875 6.722656 -13.90625 5.859375 -12.71875 L 5.5625 -14.308594 L 1.078125 -14.308594 L 1.351562 -10.261719 L 1.351562 0 L 6.316406 0 L 6.316406 -8.640625 C 6.640625 -9.046875 7.585938 -9.585938 9.207031 -9.585938 L 10.015625 -9.585938 L 10.015625 -14.660156 C 9.882812 -14.6875 9.746094 -14.6875 9.613281 -14.6875 Z M 9.613281 -14.6875 "/></g></g></g><g fill="#ffffff" fill-opacity="1"><g transform="translate(309.244221, 111.931423)"><g><path d="M 1.1875 -14.308594 L 1.1875 -4.726562 C 1.1875 -2.160156 2.269531 0.378906 5.644531 0.378906 C 7.777344 0.378906 9.234375 -0.484375 10.152344 -1.753906 L 10.503906 0 L 14.984375 0 L 14.714844 -4.050781 L 14.714844 -14.308594 L 9.746094 -14.308594 L 9.746094 -4.996094 C 9.476562 -4.589844 8.746094 -3.886719 7.667969 -3.886719 C 6.316406 -3.886719 6.15625 -4.859375 6.15625 -5.535156 L 6.15625 -14.308594 Z M 1.1875 -14.308594 "/></g></g></g><g fill="#ffffff" fill-opacity="1"><g transform="translate(325.309229, 111.931423)"><g><path d="M 22.570312 0 L 22.570312 -9.71875 C 22.570312 -12.421875 21.355469 -14.6875 18.253906 -14.6875 C 16.171875 -14.6875 14.742188 -13.796875 13.878906 -12.5 C 13.230469 -13.796875 12.042969 -14.6875 10.125 -14.6875 C 8.128906 -14.6875 6.75 -13.878906 5.859375 -12.664062 L 5.5625 -14.308594 L 1.078125 -14.308594 L 1.351562 -10.261719 L 1.351562 0 L 6.316406 0 L 6.316406 -9.449219 C 6.589844 -9.855469 7.15625 -10.421875 8.101562 -10.421875 C 9.179688 -10.421875 9.476562 -9.71875 9.476562 -8.910156 L 9.476562 0 L 14.445312 0 L 14.445312 -9.449219 C 14.714844 -9.855469 15.28125 -10.421875 16.226562 -10.421875 C 17.308594 -10.421875 17.605469 -9.71875 17.605469 -8.910156 L 17.605469 0 Z M 22.570312 0 "/></g></g></g><g fill="#ffffff" fill-opacity="1"><g transform="translate(349.069234, 111.931423)"><g><path d="M 14.445312 -5.398438 L 14.445312 -7.558594 C 14.445312 -11.746094 12.285156 -14.6875 7.667969 -14.6875 C 3.050781 -14.6875 0.675781 -11.746094 0.675781 -7.558594 L 0.675781 -6.75 C 0.675781 -2.566406 2.941406 0.378906 7.828125 0.378906 C 11.988281 0.378906 14.445312 -1.621094 14.445312 -4.480469 L 14.445312 -4.589844 L 9.773438 -4.589844 C 9.773438 -3.914062 8.9375 -3.347656 7.855469 -3.347656 C 6.613281 -3.347656 5.804688 -3.78125 5.644531 -5.398438 Z M 7.558594 -10.960938 C 8.722656 -10.960938 9.34375 -10.421875 9.476562 -8.910156 L 5.644531 -8.910156 C 5.777344 -10.421875 6.398438 -10.960938 7.558594 -10.960938 Z M 7.558594 -10.960938 "/></g></g></g><g fill="#ffffff" fill-opacity="1"><g transform="translate(364.189236, 111.931423)"><g><path d="M 14.878906 0 L 14.878906 -9.585938 C 14.878906 -12.148438 13.796875 -14.6875 10.421875 -14.6875 C 8.289062 -14.6875 6.832031 -13.796875 5.886719 -12.527344 L 5.5625 -14.308594 L 1.078125 -14.308594 L 1.351562 -10.261719 L 1.351562 0 L 6.316406 0 L 6.316406 -9.316406 C 6.589844 -9.71875 7.316406 -10.421875 8.398438 -10.421875 C 9.746094 -10.421875 9.910156 -9.449219 9.910156 -8.773438 L 9.910156 0 Z M 14.878906 0 "/></g></g></g><g fill="#ffffff" fill-opacity="1"><g transform="translate(380.254245, 111.931423)"><g><path d="M 7.53125 -14.308594 L 7.53125 -18.359375 L 2.566406 -18.359375 L 2.566406 -14.308594 L 0.40625 -14.308594 L 0.40625 -9.988281 L 2.566406 -9.988281 L 2.566406 -5.265625 C 2.566406 -1.078125 4.859375 0.378906 8.289062 0.378906 C 9.640625 0.378906 10.449219 0.136719 10.691406 0 L 10.691406 -4.050781 C 10.558594 -3.996094 9.882812 -3.886719 9.449219 -3.886719 C 8.316406 -3.886719 7.53125 -4.183594 7.53125 -5.804688 L 7.53125 -9.988281 L 10.960938 -9.988281 L 10.960938 -14.308594 Z M 7.53125 -14.308594 "/></g></g></g><g fill="#ffffff" fill-opacity="1"><g transform="translate(392.134253, 111.931423)"><g><path d="M 7.558594 0.378906 C 12.285156 0.378906 14.445312 -2.429688 14.445312 -6.613281 L 14.445312 -7.695312 C 14.445312 -11.878906 12.285156 -14.6875 7.558594 -14.6875 C 2.835938 -14.6875 0.675781 -11.878906 0.675781 -7.695312 L 0.675781 -6.613281 C 0.675781 -2.429688 2.835938 0.378906 7.558594 0.378906 Z M 7.558594 -3.886719 C 6.210938 -3.886719 5.617188 -4.859375 5.617188 -6.613281 L 5.617188 -7.695312 C 5.617188 -9.449219 6.210938 -10.421875 7.558594 -10.421875 C 8.910156 -10.421875 9.503906 -9.449219 9.503906 -7.695312 L 9.503906 -6.613281 C 9.503906 -4.859375 8.910156 -3.886719 7.558594 -3.886719 Z M 7.558594 -3.886719 "/></g></g></g><g fill="#ffffff" fill-opacity="1"><g transform="translate(407.254255, 111.931423)"><g><path d="M 7.15625 -3.347656 C 6.128906 -3.347656 5.695312 -3.808594 5.695312 -4.589844 L 0.757812 -4.589844 L 0.757812 -4.453125 C 0.757812 -1.484375 2.941406 0.378906 7.15625 0.378906 C 11.449219 0.378906 13.554688 -1.484375 13.554688 -4.617188 L 13.554688 -4.886719 C 13.554688 -8.019531 10.960938 -8.667969 7.371094 -8.964844 C 6.15625 -9.070312 5.804688 -9.316406 5.804688 -9.988281 C 5.804688 -10.558594 6.265625 -10.960938 7.15625 -10.960938 C 8.046875 -10.960938 8.503906 -10.449219 8.503906 -9.585938 L 13.363281 -9.585938 L 13.363281 -9.71875 C 13.363281 -12.878906 11.449219 -14.6875 7.15625 -14.6875 C 3.753906 -14.6875 0.945312 -13.363281 0.945312 -9.828125 L 0.945312 -9.558594 C 0.945312 -6.695312 2.863281 -5.804688 6.964844 -5.480469 C 8.316406 -5.371094 8.585938 -4.996094 8.585938 -4.402344 C 8.585938 -3.835938 8.234375 -3.347656 7.15625 -3.347656 Z M 7.15625 -3.347656 "/></g></g></g><g fill="#ffffff" fill-opacity="1"><g transform="translate(421.564256, 111.931423)"><g/></g></g><g fill="#ffffff" fill-opacity="1"><g transform="translate(426.964253, 111.931423)"><g><path d="M 6.640625 0.378906 C 8.722656 0.378906 10.476562 -0.0546875 11.988281 -0.757812 L 12.609375 0 L 18.574219 0 L 15.660156 -3.5625 C 17.523438 -5.777344 18.386719 -8.449219 18.386719 -10.53125 L 18.386719 -10.664062 L 13.121094 -10.664062 L 13.121094 -10.609375 C 13.121094 -9.613281 12.90625 -8.476562 12.472656 -7.453125 L 9.882812 -10.636719 C 11.90625 -11.71875 13.878906 -13.09375 13.878906 -16.144531 L 13.878906 -16.441406 C 13.878906 -19.089844 12.203125 -21.4375 7.804688 -21.4375 C 3.402344 -21.4375 1.726562 -19.089844 1.726562 -16.441406 L 1.726562 -16.144531 C 1.726562 -14.148438 2.242188 -12.933594 3.1875 -11.609375 C 1.621094 -10.476562 0.324219 -8.828125 0.324219 -6.046875 L 0.324219 -5.75 C 0.324219 -2.132812 2.59375 0.378906 6.640625 0.378906 Z M 7.507812 -3.886719 C 6.15625 -3.886719 5.425781 -4.726562 5.425781 -6.238281 L 5.425781 -6.371094 C 5.425781 -7.074219 5.644531 -7.613281 5.992188 -8.101562 L 9.234375 -4.132812 C 8.746094 -3.96875 8.207031 -3.886719 7.640625 -3.886719 Z M 6.75 -16.253906 C 6.75 -16.929688 7.128906 -17.359375 7.722656 -17.359375 L 7.882812 -17.359375 C 8.476562 -17.359375 8.855469 -16.929688 8.855469 -16.253906 L 8.855469 -16.117188 C 8.855469 -15.199219 8.234375 -14.578125 7.316406 -13.984375 C 6.964844 -14.660156 6.75 -15.390625 6.75 -16.117188 Z M 6.75 -16.253906 "/></g></g></g><g fill="#ffffff" fill-opacity="1"><g transform="translate(445.864261, 111.931423)"><g/></g></g><g fill="#ffffff" fill-opacity="1"><g transform="translate(451.264247, 111.931423)"><g><path d="M 6.101562 -9.988281 L 6.101562 -11.070312 C 6.101562 -14.714844 6.480469 -17.011719 9.046875 -17.011719 L 9.316406 -17.011719 C 11.339844 -17.011719 11.746094 -15.390625 11.746094 -12.960938 L 16.875 -12.960938 L 16.875 -14.011719 C 16.875 -19.441406 14.203125 -21.4375 9.046875 -21.4375 C 3.375 -21.4375 0.890625 -18.359375 0.890625 -11.070312 L 0.890625 -9.988281 C 0.890625 -2.699219 3.375 0.378906 9.046875 0.378906 C 14.203125 0.378906 16.875 -1.621094 16.875 -7.046875 L 16.875 -7.289062 L 11.746094 -7.289062 C 11.746094 -5.398438 11.125 -4.050781 9.316406 -4.050781 L 9.046875 -4.050781 C 6.480469 -4.050781 6.101562 -6.34375 6.101562 -9.988281 Z M 6.101562 -9.988281 "/></g></g></g><g fill="#ffffff" fill-opacity="1"><g transform="translate(469.084253, 111.931423)"><g><path d="M 7.558594 0.378906 C 12.285156 0.378906 14.445312 -2.429688 14.445312 -6.613281 L 14.445312 -7.695312 C 14.445312 -11.878906 12.285156 -14.6875 7.558594 -14.6875 C 2.835938 -14.6875 0.675781 -11.878906 0.675781 -7.695312 L 0.675781 -6.613281 C 0.675781 -2.429688 2.835938 0.378906 7.558594 0.378906 Z M 7.558594 -3.886719 C 6.210938 -3.886719 5.617188 -4.859375 5.617188 -6.613281 L 5.617188 -7.695312 C 5.617188 -9.449219 6.210938 -10.421875 7.558594 -10.421875 C 8.910156 -10.421875 9.503906 -9.449219 9.503906 -7.695312 L 9.503906 -6.613281 C 9.503906 -4.859375 8.910156 -3.886719 7.558594 -3.886719 Z M 7.558594 -3.886719 "/></g></g></g><g fill="#ffffff" fill-opacity="1"><g transform="translate(484.204256, 111.931423)"><g><path d="M 14.878906 0 L 14.878906 -9.585938 C 14.878906 -12.148438 13.796875 -14.6875 10.421875 -14.6875 C 8.289062 -14.6875 6.832031 -13.796875 5.886719 -12.527344 L 5.5625 -14.308594 L 1.078125 -14.308594 L 1.351562 -10.261719 L 1.351562 0 L 6.316406 0 L 6.316406 -9.316406 C 6.589844 -9.71875 7.316406 -10.421875 8.398438 -10.421875 C 9.746094 -10.421875 9.910156 -9.449219 9.910156 -8.773438 L 9.910156 0 Z M 14.878906 0 "/></g></g></g><g fill="#ffffff" fill-opacity="1"><g transform="translate(500.269264, 111.931423)"><g><path d="M 7.15625 -3.347656 C 6.128906 -3.347656 5.695312 -3.808594 5.695312 -4.589844 L 0.757812 -4.589844 L 0.757812 -4.453125 C 0.757812 -1.484375 2.941406 0.378906 7.15625 0.378906 C 11.449219 0.378906 13.554688 -1.484375 13.554688 -4.617188 L 13.554688 -4.886719 C 13.554688 -8.019531 10.960938 -8.667969 7.371094 -8.964844 C 6.15625 -9.070312 5.804688 -9.316406 5.804688 -9.988281 C 5.804688 -10.558594 6.265625 -10.960938 7.15625 -10.960938 C 8.046875 -10.960938 8.503906 -10.449219 8.503906 -9.585938 L 13.363281 -9.585938 L 13.363281 -9.71875 C 13.363281 -12.878906 11.449219 -14.6875 7.15625 -14.6875 C 3.753906 -14.6875 0.945312 -13.363281 0.945312 -9.828125 L 0.945312 -9.558594 C 0.945312 -6.695312 2.863281 -5.804688 6.964844 -5.480469 C 8.316406 -5.371094 8.585938 -4.996094 8.585938 -4.402344 C 8.585938 -3.835938 8.234375 -3.347656 7.15625 -3.347656 Z M 7.15625 -3.347656 "/></g></g></g><g fill="#ffffff" fill-opacity="1"><g transform="translate(514.579276, 111.931423)"><g><path d="M 14.445312 -5.398438 L 14.445312 -7.558594 C 14.445312 -11.746094 12.285156 -14.6875 7.667969 -14.6875 C 3.050781 -14.6875 0.675781 -11.746094 0.675781 -7.558594 L 0.675781 -6.75 C 0.675781 -2.566406 2.941406 0.378906 7.828125 0.378906 C 11.988281 0.378906 14.445312 -1.621094 14.445312 -4.480469 L 14.445312 -4.589844 L 9.773438 -4.589844 C 9.773438 -3.914062 8.9375 -3.347656 7.855469 -3.347656 C 6.613281 -3.347656 5.804688 -3.78125 5.644531 -5.398438 Z M 7.558594 -10.960938 C 8.722656 -10.960938 9.34375 -10.421875 9.476562 -8.910156 L 5.644531 -8.910156 C 5.777344 -10.421875 6.398438 -10.960938 7.558594 -10.960938 Z M 7.558594 -10.960938 "/></g></g></g><g fill="#ffffff" fill-opacity="1"><g transform="translate(529.699278, 111.931423)"><g><path d="M 1.296875 -0.40625 C 1.296875 1.214844 0.511719 1.511719 -0.621094 1.511719 C -1.054688 1.511719 -1.726562 1.402344 -1.863281 1.351562 L -1.863281 5.398438 C -1.621094 5.535156 -0.808594 5.777344 0.539062 5.777344 C 3.96875 5.777344 6.265625 4.320312 6.265625 0.136719 L 6.265625 -14.308594 L 1.296875 -14.308594 Z M 6.34375 -21.058594 L 1.214844 -21.058594 L 1.214844 -15.929688 L 6.34375 -15.929688 Z M 6.34375 -21.058594 "/></g></g></g><g fill="#ffffff" fill-opacity="1"><g transform="translate(537.259268, 111.931423)"><g><path d="M 7.558594 0.378906 C 12.285156 0.378906 14.445312 -2.429688 14.445312 -6.613281 L 14.445312 -7.695312 C 14.445312 -11.878906 12.285156 -14.6875 7.558594 -14.6875 C 2.835938 -14.6875 0.675781 -11.878906 0.675781 -7.695312 L 0.675781 -6.613281 C 0.675781 -2.429688 2.835938 0.378906 7.558594 0.378906 Z M 7.558594 -3.886719 C 6.210938 -3.886719 5.617188 -4.859375 5.617188 -6.613281 L 5.617188 -7.695312 C 5.617188 -9.449219 6.210938 -10.421875 7.558594 -10.421875 C 8.910156 -10.421875 9.503906 -9.449219 9.503906 -7.695312 L 9.503906 -6.613281 C 9.503906 -4.859375 8.910156 -3.886719 7.558594 -3.886719 Z M 7.558594 -3.886719 "/></g></g></g><g fill="#ffffff" fill-opacity="1"><g transform="translate(552.37927, 111.931423)"><g><path d="M 7.15625 -3.347656 C 6.128906 -3.347656 5.695312 -3.808594 5.695312 -4.589844 L 0.757812 -4.589844 L 0.757812 -4.453125 C 0.757812 -1.484375 2.941406 0.378906 7.15625 0.378906 C 11.449219 0.378906 13.554688 -1.484375 13.554688 -4.617188 L 13.554688 -4.886719 C 13.554688 -8.019531 10.960938 -8.667969 7.371094 -8.964844 C 6.15625 -9.070312 5.804688 -9.316406 5.804688 -9.988281 C 5.804688 -10.558594 6.265625 -10.960938 7.15625 -10.960938 C 8.046875 -10.960938 8.503906 -10.449219 8.503906 -9.585938 L 13.363281 -9.585938 L 13.363281 -9.71875 C 13.363281 -12.878906 11.449219 -14.6875 7.15625 -14.6875 C 3.753906 -14.6875 0.945312 -13.363281 0.945312 -9.828125 L 0.945312 -9.558594 C 0.945312 -6.695312 2.863281 -5.804688 6.964844 -5.480469 C 8.316406 -5.371094 8.585938 -4.996094 8.585938 -4.402344 C 8.585938 -3.835938 8.234375 -3.347656 7.15625 -3.347656 Z M 7.15625 -3.347656 "/></g></g></g></svg>